<svg width="24" height="25" viewBox="0 0 24 25" fill="none" xmlns="http://www.w3.org/2000/svg">
<path fill-rule="evenodd" clip-rule="evenodd" d="M2.25 12.25C2.25 6.865 6.615 2.5 12 2.5C17.385 2.5 21.75 6.865 21.75 12.25C21.75 17.635 17.385 22 12 22C6.615 22 2.25 17.635 2.25 12.25ZM15.61 10.436C15.67 10.3561 15.7134 10.2649 15.7377 10.1679C15.762 10.071 15.7666 9.97014 15.7514 9.87135C15.7361 9.77257 15.7012 9.67782 15.6489 9.5927C15.5965 9.50757 15.5276 9.43378 15.4463 9.37565C15.3649 9.31753 15.2728 9.27624 15.1753 9.25423C15.0778 9.23221 14.9769 9.22991 14.8785 9.24746C14.7801 9.26501 14.6862 9.30205 14.6023 9.35641C14.5184 9.41077 14.4462 9.48135 14.39 9.564L11.154 14.094L9.53 12.47C9.38783 12.3375 9.19978 12.2654 9.00548 12.2688C8.81118 12.2723 8.62579 12.351 8.48838 12.4884C8.35097 12.6258 8.27225 12.8112 8.26882 13.0055C8.2654 13.1998 8.33752 13.3878 8.47 13.53L10.72 15.78C10.797 15.8569 10.8898 15.9162 10.992 15.9536C11.0942 15.9911 11.2033 16.0059 11.3118 15.9969C11.4202 15.988 11.5255 15.9555 11.6201 15.9019C11.7148 15.8482 11.7967 15.7745 11.86 15.686L15.61 10.436Z" fill="#3D6BC6"/>
</svg>
