<svg width="24" height="24" viewBox="0 0 24 24" fill="none" xmlns="http://www.w3.org/2000/svg">
<path fill-rule="evenodd" clip-rule="evenodd" d="M7.71991 12.53C7.57946 12.3894 7.50057 12.1988 7.50057 12C7.50057 11.8013 7.57946 11.6107 7.71991 11.47L15.2199 3.97003C15.3621 3.83755 15.5501 3.76543 15.7444 3.76886C15.9387 3.77228 16.1241 3.851 16.2615 3.98841C16.3989 4.12582 16.4777 4.31121 16.4811 4.50551C16.4845 4.69981 16.4124 4.88786 16.2799 5.03003L9.30991 12L16.2799 18.97C16.4124 19.1122 16.4845 19.3003 16.4811 19.4946C16.4777 19.6889 16.3989 19.8742 16.2615 20.0117C16.1241 20.1491 15.9387 20.2278 15.7444 20.2312C15.5501 20.2346 15.3621 20.1625 15.2199 20.03L7.71991 12.53Z" fill="#F8FAFD"/>
</svg>
