<svg width="15" height="16" viewBox="0 0 15 16" fill="none" xmlns="http://www.w3.org/2000/svg">
<path fill-rule="evenodd" clip-rule="evenodd" d="M5.15628 2.84375H12.1875C12.3118 2.84375 12.4311 2.89314 12.519 2.98104C12.6069 3.06895 12.6563 3.18818 12.6563 3.3125V10.3437C12.6563 10.4681 12.6069 10.5873 12.519 10.6752C12.4311 10.7631 12.3118 10.8125 12.1875 10.8125C12.0632 10.8125 11.944 10.7631 11.8561 10.6752C11.7682 10.5873 11.7188 10.4681 11.7188 10.3437V4.44375L3.14378 13.0187C3.05492 13.1015 2.93739 13.1466 2.81595 13.1445C2.69451 13.1423 2.57865 13.0931 2.49276 13.0073C2.40688 12.9214 2.35768 12.8055 2.35554 12.6841C2.3534 12.5626 2.39848 12.4451 2.48128 12.3562L11.0563 3.78125H5.15628C5.03196 3.78125 4.91273 3.73186 4.82482 3.64396C4.73691 3.55605 4.68753 3.43682 4.68753 3.3125C4.68753 3.18818 4.73691 3.06895 4.82482 2.98104C4.91273 2.89314 5.03196 2.84375 5.15628 2.84375Z" fill="black"/>
</svg>
