<svg width="142" height="42" viewBox="0 0 142 42" fill="none" xmlns="http://www.w3.org/2000/svg">
<path d="M0.17873 20.8135C0.145774 17.7723 2.47838 15.2111 5.53863 14.9284L21.0497 13.4952C26.3953 13.0013 29.5591 19.2576 25.9614 23.2079L10.6174 40.0555C7.01968 44.0057 0.403332 41.5402 0.345766 36.2279L0.17873 20.8135Z" fill="#D570CC"/>
<path d="M0.000489658 8.04089C-0.0407097 4.7003 2.52272 1.8857 5.88477 1.58003L22.9421 0.0292611C28.7974 -0.503074 32.2564 6.34958 28.3162 10.6759L11.4679 29.1752C7.52766 33.5015 0.281267 30.8073 0.209515 24.9894L0.000489658 8.04089Z" fill="#6366F1" fill-opacity="0.8"/>
<path d="M47.992 30V13.2H55.624C57.448 13.2 59.056 13.552 60.448 14.256C61.84 14.944 62.928 15.912 63.712 17.16C64.496 18.408 64.888 19.888 64.888 21.6C64.888 23.296 64.496 24.776 63.712 26.04C62.928 27.288 61.84 28.264 60.448 28.968C59.056 29.656 57.448 30 55.624 30H47.992ZM51.88 26.808H55.432C56.552 26.808 57.52 26.6 58.336 26.184C59.168 25.752 59.808 25.144 60.256 24.36C60.72 23.576 60.952 22.656 60.952 21.6C60.952 20.528 60.72 19.608 60.256 18.84C59.808 18.056 59.168 17.456 58.336 17.04C57.52 16.608 56.552 16.392 55.432 16.392H51.88V26.808ZM73.9641 30.192C72.4921 30.192 71.1961 29.904 70.0761 29.328C68.9721 28.752 68.1161 27.968 67.5081 26.976C66.9001 25.968 66.5961 24.824 66.5961 23.544C66.5961 22.248 66.8921 21.104 67.4841 20.112C68.0921 19.104 68.9161 18.32 69.9561 17.76C70.9961 17.184 72.1721 16.896 73.4841 16.896C74.7481 16.896 75.8841 17.168 76.8921 17.712C77.9161 18.24 78.7241 19.008 79.3161 20.016C79.9081 21.008 80.2041 22.2 80.2041 23.592C80.2041 23.736 80.1961 23.904 80.1801 24.096C80.1641 24.272 80.1481 24.44 80.1321 24.6H69.6441V22.416H78.1641L76.7241 23.064C76.7241 22.392 76.5881 21.808 76.3161 21.312C76.0441 20.816 75.6681 20.432 75.1881 20.16C74.7081 19.872 74.1481 19.728 73.5081 19.728C72.8681 19.728 72.3001 19.872 71.8041 20.16C71.3241 20.432 70.9481 20.824 70.6761 21.336C70.4041 21.832 70.2681 22.424 70.2681 23.112V23.688C70.2681 24.392 70.4201 25.016 70.7241 25.56C71.0441 26.088 71.4841 26.496 72.0441 26.784C72.6201 27.056 73.2921 27.192 74.0601 27.192C74.7481 27.192 75.3481 27.088 75.8601 26.88C76.3881 26.672 76.8681 26.36 77.3001 25.944L79.2921 28.104C78.7001 28.776 77.9561 29.296 77.0601 29.664C76.1641 30.016 75.1321 30.192 73.9641 30.192ZM82.6968 30V17.088H86.2728V20.736L85.7688 19.68C86.1528 18.768 86.7688 18.08 87.6168 17.616C88.4648 17.136 89.4968 16.896 90.7128 16.896V20.352C90.5528 20.336 90.4088 20.328 90.2808 20.328C90.1528 20.312 90.0168 20.304 89.8728 20.304C88.8488 20.304 88.0168 20.6 87.3768 21.192C86.7528 21.768 86.4408 22.672 86.4408 23.904V30H82.6968ZM92.9624 30V17.088H96.7064V30H92.9624ZM94.8344 15.288C94.1464 15.288 93.5864 15.088 93.1544 14.688C92.7224 14.288 92.5064 13.792 92.5064 13.2C92.5064 12.608 92.7224 12.112 93.1544 11.712C93.5864 11.312 94.1464 11.112 94.8344 11.112C95.5224 11.112 96.0824 11.304 96.5144 11.688C96.9464 12.056 97.1624 12.536 97.1624 13.128C97.1624 13.752 96.9464 14.272 96.5144 14.688C96.0984 15.088 95.5384 15.288 94.8344 15.288ZM108.029 16.896C109.053 16.896 109.965 17.104 110.765 17.52C111.581 17.92 112.221 18.544 112.685 19.392C113.149 20.224 113.381 21.296 113.381 22.608V30H109.637V23.184C109.637 22.144 109.405 21.376 108.941 20.88C108.493 20.384 107.853 20.136 107.021 20.136C106.429 20.136 105.893 20.264 105.413 20.52C104.949 20.76 104.581 21.136 104.309 21.648C104.053 22.16 103.925 22.816 103.925 23.616V30H100.181V17.088H103.757V20.664L103.085 19.584C103.549 18.72 104.213 18.056 105.077 17.592C105.941 17.128 106.925 16.896 108.029 16.896ZM123.013 30.192C121.637 30.192 120.413 29.904 119.341 29.328C118.285 28.752 117.445 27.968 116.821 26.976C116.213 25.968 115.909 24.824 115.909 23.544C115.909 22.248 116.213 21.104 116.821 20.112C117.445 19.104 118.285 18.32 119.341 17.76C120.413 17.184 121.637 16.896 123.013 16.896C124.373 16.896 125.589 17.184 126.661 17.76C127.733 18.32 128.573 19.096 129.181 20.088C129.789 21.08 130.093 22.232 130.093 23.544C130.093 24.824 129.789 25.968 129.181 26.976C128.573 27.968 127.733 28.752 126.661 29.328C125.589 29.904 124.373 30.192 123.013 30.192ZM123.013 27.12C123.637 27.12 124.197 26.976 124.693 26.688C125.189 26.4 125.581 25.992 125.869 25.464C126.157 24.92 126.301 24.28 126.301 23.544C126.301 22.792 126.157 22.152 125.869 21.624C125.581 21.096 125.189 20.688 124.693 20.4C124.197 20.112 123.637 19.968 123.013 19.968C122.389 19.968 121.829 20.112 121.333 20.4C120.837 20.688 120.437 21.096 120.133 21.624C119.845 22.152 119.701 22.792 119.701 23.544C119.701 24.28 119.845 24.92 120.133 25.464C120.437 25.992 120.837 26.4 121.333 26.688C121.829 26.976 122.389 27.12 123.013 27.12ZM132.595 30V17.088H136.171V20.736L135.667 19.68C136.051 18.768 136.667 18.08 137.515 17.616C138.363 17.136 139.395 16.896 140.611 16.896V20.352C140.451 20.336 140.307 20.328 140.179 20.328C140.051 20.312 139.915 20.304 139.771 20.304C138.747 20.304 137.915 20.6 137.275 21.192C136.651 21.768 136.339 22.672 136.339 23.904V30H132.595Z" fill="#23272A"/>
</svg>
